<svg width="24" height="24" viewBox="0 0 24 24" fill="none" xmlns="http://www.w3.org/2000/svg">
<path fill-rule="evenodd" clip-rule="evenodd" d="M14.8851 3.63195C15.5634 3.36161 16.2897 3.23231 17.0196 3.25194C17.7495 3.27157 18.4678 3.43972 19.1306 3.74611C19.7932 4.05241 20.3865 4.49045 20.8742 5.03353C22.8421 7.21894 22.5095 10.592 20.4807 12.6208L12.8839 20.2175C12.6495 20.4519 12.3315 20.5836 12 20.5836C11.6685 20.5836 11.3505 20.4519 11.1161 20.2175L3.32431 12.4257C2.80799 11.9094 2.40228 11.2932 2.13195 10.6149C1.86161 9.93661 1.73231 9.21033 1.75194 8.4804C1.77157 7.75047 1.93971 7.03219 2.24611 6.36938C2.55246 5.70669 2.9906 5.11335 3.5338 4.62555C5.71922 2.65789 9.09205 2.99064 11.1208 5.01935L12 5.8986L13.0743 4.82431C13.5906 4.30799 14.2068 3.90228 14.8851 3.63195ZM16.9927 4.25158C16.3986 4.2356 15.8074 4.34085 15.2553 4.56089C14.7032 4.78093 14.2017 5.11116 13.7814 5.53142C13.7814 5.53142 13.7814 5.53141 13.7814 5.53142L12.3536 6.95926C12.1583 7.15452 11.8417 7.15452 11.6464 6.95926L10.4136 5.72646C8.70924 4.02205 5.94058 3.80397 4.20269 5.36891C3.76045 5.76599 3.40321 6.2495 3.15382 6.789C2.90442 7.32849 2.76756 7.91315 2.75158 8.50728C2.7356 9.10142 2.84085 9.69258 3.06089 10.2447C3.28093 10.7968 3.61115 11.2983 4.03141 11.7186C4.03142 11.7186 4.03141 11.7186 4.03141 11.7186L11.8232 19.5104C11.8701 19.5573 11.9337 19.5836 12 19.5836C12.0663 19.5836 12.1299 19.5573 12.1768 19.5104L19.7736 11.9136C21.478 10.2092 21.696 7.44058 20.1311 5.70269C19.734 5.26045 19.2505 4.90321 18.711 4.65382C18.1715 4.40442 17.5869 4.26756 16.9927 4.25158Z" fill="black"/>
</svg>
