<svg width="24" height="24" viewBox="0 0 24 24" fill="none" xmlns="http://www.w3.org/2000/svg">
<path fill-rule="evenodd" clip-rule="evenodd" d="M14.8851 3.63195C15.5634 3.36161 16.2897 3.23231 17.0196 3.25194C17.7495 3.27157 18.4678 3.43972 19.1306 3.74611C19.7932 4.05241 20.3865 4.49045 20.8742 5.03353C22.8421 7.21894 22.5095 10.592 20.4807 12.6208L12.8839 20.2175C12.6495 20.4519 12.3315 20.5836 12 20.5836C11.6685 20.5836 11.3505 20.4519 11.1161 20.2175L3.32431 12.4257C2.80799 11.9094 2.40228 11.2932 2.13195 10.6149C1.86161 9.93661 1.73231 9.21033 1.75194 8.4804C1.77157 7.75047 1.93971 7.03219 2.24611 6.36938C2.55246 5.70669 2.9906 5.11335 3.5338 4.62555C5.71922 2.65789 9.09205 2.99064 11.1208 5.01935L12 5.8986L13.0743 4.82431C13.5906 4.30799 14.2068 3.90228 14.8851 3.63195Z" fill="#E44C4C"/>
</svg>
